<svg width="119" height="176" viewBox="0 0 119 176" fill="none" xmlns="http://www.w3.org/2000/svg">
<path d="M9.77813 159.016H3.93438L3.90313 155.797H8.80938C9.67396 155.797 10.3823 155.688 10.9344 155.469C11.4865 155.24 11.8979 154.911 12.1688 154.484C12.45 154.047 12.5906 153.516 12.5906 152.891C12.5906 152.182 12.4552 151.609 12.1844 151.172C11.924 150.734 11.5125 150.417 10.95 150.219C10.3979 150.021 9.68438 149.922 8.80938 149.922H5.55938V169H0.871876V146.25H8.80938C10.1323 146.25 11.3146 146.375 12.3563 146.625C13.4083 146.875 14.299 147.255 15.0281 147.766C15.7573 148.276 16.3146 148.922 16.7 149.703C17.0854 150.474 17.2781 151.391 17.2781 152.453C17.2781 153.391 17.0646 154.255 16.6375 155.047C16.2208 155.839 15.5594 156.484 14.6531 156.984C13.7573 157.484 12.5854 157.76 11.1375 157.812L9.77813 159.016ZM9.575 169H2.65313L4.48125 165.344H9.575C10.3979 165.344 11.0698 165.214 11.5906 164.953C12.1115 164.682 12.4969 164.318 12.7469 163.859C12.9969 163.401 13.1219 162.875 13.1219 162.281C13.1219 161.615 13.0073 161.036 12.7781 160.547C12.5594 160.057 12.2052 159.682 11.7156 159.422C11.226 159.151 10.5802 159.016 9.77813 159.016H5.2625L5.29375 155.797H10.9188L11.9969 157.062C13.3823 157.042 14.4969 157.286 15.3406 157.797C16.1948 158.297 16.8146 158.948 17.2 159.75C17.5958 160.552 17.7938 161.411 17.7938 162.328C17.7938 163.786 17.476 165.016 16.8406 166.016C16.2052 167.005 15.2729 167.75 14.0438 168.25C12.825 168.75 11.3354 169 9.575 169ZM21.9094 160.719V160.391C21.9094 159.151 22.0865 158.01 22.4406 156.969C22.7948 155.917 23.3104 155.005 23.9875 154.234C24.6646 153.464 25.4979 152.865 26.4875 152.438C27.4771 152 28.6125 151.781 29.8938 151.781C31.175 151.781 32.3156 152 33.3156 152.438C34.3156 152.865 35.1542 153.464 35.8313 154.234C36.5188 155.005 37.0396 155.917 37.3938 156.969C37.7479 158.01 37.925 159.151 37.925 160.391V160.719C37.925 161.948 37.7479 163.089 37.3938 164.141C37.0396 165.182 36.5188 166.094 35.8313 166.875C35.1542 167.646 34.3208 168.245 33.3313 168.672C32.3417 169.099 31.2063 169.312 29.925 169.312C28.6438 169.312 27.5031 169.099 26.5031 168.672C25.5135 168.245 24.675 167.646 23.9875 166.875C23.3104 166.094 22.7948 165.182 22.4406 164.141C22.0865 163.089 21.9094 161.948 21.9094 160.719ZM26.4094 160.391V160.719C26.4094 161.427 26.4719 162.089 26.5969 162.703C26.7219 163.318 26.9198 163.859 27.1906 164.328C27.4719 164.786 27.8365 165.146 28.2844 165.406C28.7323 165.667 29.2792 165.797 29.925 165.797C30.55 165.797 31.0865 165.667 31.5344 165.406C31.9823 165.146 32.3417 164.786 32.6125 164.328C32.8833 163.859 33.0813 163.318 33.2063 162.703C33.3417 162.089 33.4094 161.427 33.4094 160.719V160.391C33.4094 159.703 33.3417 159.057 33.2063 158.453C33.0813 157.839 32.8781 157.297 32.5969 156.828C32.326 156.349 31.9667 155.974 31.5188 155.703C31.0708 155.432 30.5292 155.297 29.8938 155.297C29.2583 155.297 28.7167 155.432 28.2688 155.703C27.8313 155.974 27.4719 156.349 27.1906 156.828C26.9198 157.297 26.7219 157.839 26.5969 158.453C26.4719 159.057 26.4094 159.703 26.4094 160.391ZM41.5719 160.719V160.391C41.5719 159.151 41.749 158.01 42.1031 156.969C42.4573 155.917 42.9729 155.005 43.65 154.234C44.3271 153.464 45.1604 152.865 46.15 152.438C47.1396 152 48.275 151.781 49.5563 151.781C50.8375 151.781 51.9781 152 52.9781 152.438C53.9781 152.865 54.8167 153.464 55.4938 154.234C56.1813 155.005 56.7021 155.917 57.0563 156.969C57.4104 158.01 57.5875 159.151 57.5875 160.391V160.719C57.5875 161.948 57.4104 163.089 57.0563 164.141C56.7021 165.182 56.1813 166.094 55.4938 166.875C54.8167 167.646 53.9833 168.245 52.9938 168.672C52.0042 169.099 50.8688 169.312 49.5875 169.312C48.3063 169.312 47.1656 169.099 46.1656 168.672C45.176 168.245 44.3375 167.646 43.65 166.875C42.9729 166.094 42.4573 165.182 42.1031 164.141C41.749 163.089 41.5719 161.948 41.5719 160.719ZM46.0719 160.391V160.719C46.0719 161.427 46.1344 162.089 46.2594 162.703C46.3844 163.318 46.5823 163.859 46.8531 164.328C47.1344 164.786 47.499 165.146 47.9469 165.406C48.3948 165.667 48.9417 165.797 49.5875 165.797C50.2125 165.797 50.749 165.667 51.1969 165.406C51.6448 165.146 52.0042 164.786 52.275 164.328C52.5458 163.859 52.7438 163.318 52.8688 162.703C53.0042 162.089 53.0719 161.427 53.0719 160.719V160.391C53.0719 159.703 53.0042 159.057 52.8688 158.453C52.7438 157.839 52.5406 157.297 52.2594 156.828C51.9885 156.349 51.6292 155.974 51.1813 155.703C50.7333 155.432 50.1917 155.297 49.5563 155.297C48.9208 155.297 48.3792 155.432 47.9313 155.703C47.4938 155.974 47.1344 156.349 46.8531 156.828C46.5823 157.297 46.3844 157.839 46.2594 158.453C46.1344 159.057 46.0719 159.703 46.0719 160.391ZM66.4531 144.984V169H61.9531V144.984H66.4531ZM77.1094 152.094L69.7656 160.469L65.8281 164.453L64.1875 161.203L67.3125 157.234L71.7031 152.094H77.1094ZM72.4375 169L67.4375 161.188L70.5469 158.469L77.625 169H72.4375ZM85.3969 152.094V169H80.8813V152.094H85.3969ZM80.6 147.688C80.6 147.031 80.8292 146.49 81.2875 146.062C81.7458 145.635 82.3604 145.422 83.1313 145.422C83.8917 145.422 84.501 145.635 84.9594 146.062C85.4281 146.49 85.6625 147.031 85.6625 147.688C85.6625 148.344 85.4281 148.885 84.9594 149.312C84.501 149.74 83.8917 149.953 83.1313 149.953C82.3604 149.953 81.7458 149.74 81.2875 149.312C80.8292 148.885 80.6 148.344 80.6 147.688ZM96.45 169H91.9187V150.594C91.9187 149.312 92.1687 148.234 92.6687 147.359C93.1792 146.474 93.8927 145.807 94.8094 145.359C95.7365 144.901 96.8354 144.672 98.1062 144.672C98.5229 144.672 98.924 144.703 99.3094 144.766C99.6948 144.818 100.07 144.885 100.434 144.969L100.387 148.359C100.19 148.307 99.9812 148.271 99.7625 148.25C99.5437 148.229 99.2885 148.219 98.9969 148.219C98.4552 148.219 97.9917 148.312 97.6062 148.5C97.2312 148.677 96.9448 148.943 96.7469 149.297C96.549 149.651 96.45 150.083 96.45 150.594V169ZM99.825 152.094V155.281H89.4031V152.094H99.825ZM108.8 167.094L113.284 152.094H118.113L111.316 171.547C111.17 171.974 110.972 172.432 110.722 172.922C110.482 173.411 110.154 173.875 109.738 174.312C109.331 174.76 108.816 175.125 108.191 175.406C107.576 175.688 106.821 175.828 105.925 175.828C105.498 175.828 105.149 175.802 104.878 175.75C104.607 175.698 104.284 175.625 103.909 175.531V172.234C104.024 172.234 104.144 172.234 104.269 172.234C104.394 172.245 104.514 172.25 104.628 172.25C105.222 172.25 105.706 172.182 106.081 172.047C106.456 171.911 106.758 171.703 106.988 171.422C107.217 171.151 107.399 170.797 107.534 170.359L108.8 167.094ZM106.925 152.094L110.597 164.344L111.238 169.109L108.175 169.438L102.097 152.094H106.925Z" fill="black"/>
<path d="M11.7 23.4H0V105.3C0 111.735 5.265 117 11.7 117H93.6V105.3H11.7V23.4ZM105.3 0H35.1C28.665 0 23.4 5.265 23.4 11.7V81.9C23.4 88.335 28.665 93.6 35.1 93.6H105.3C111.735 93.6 117 88.335 117 81.9V11.7C117 5.265 111.735 0 105.3 0ZM99.45 52.65H40.95V40.95H99.45V52.65ZM76.05 76.05H40.95V64.35H76.05V76.05ZM99.45 29.25H40.95V17.55H99.45V29.25Z" fill="black"/>
</svg>
